<svg width="24" height="24" viewBox="0 0 24 24" fill="none" xmlns="http://www.w3.org/2000/svg">
<path d="M11.509 18.3758C8.24381 18.3758 5.6101 15.733 5.6101 12.4566C5.6101 9.18016 8.24381 6.5374 11.509 6.5374C14.7742 6.5374 17.4079 9.18016 17.4079 12.4566C17.4079 15.733 14.7742 18.3758 11.509 18.3758ZM11.509 8.60833C9.39894 8.60833 7.67394 10.3341 7.67394 12.4566C7.67394 14.579 9.39381 16.3048 11.509 16.3048C13.6242 16.3048 15.344 14.579 15.344 12.4566C15.344 10.3341 13.619 8.60833 11.509 8.60833ZM19.0251 18.6179C19.0251 17.8503 18.409 17.2372 17.6492 17.2372C16.8842 17.2372 16.2733 17.8554 16.2733 18.6179C16.2733 19.3803 16.8893 19.9985 17.6492 19.9985C18.409 19.9985 19.0251 19.3803 19.0251 18.6179ZM22.932 17.2166C22.8447 19.0661 22.4237 20.7043 21.0735 22.054C19.7284 23.4037 18.0958 23.8261 16.2527 23.9189C14.3532 24.027 8.65965 24.027 6.7601 23.9189C4.92215 23.8313 3.28956 23.4089 1.93934 22.0591C0.589118 20.7094 0.17327 19.0712 0.0808594 17.2218C-0.0269531 15.3157 -0.0269531 9.60259 0.0808594 7.6965C0.168136 5.84708 0.589118 4.20888 1.93934 2.85916C3.28956 1.50944 4.91702 1.08701 6.7601 0.994284C8.65965 0.886099 14.3532 0.886099 16.2527 0.994284C18.0958 1.08186 19.7284 1.50429 21.0735 2.85916C22.4186 4.20888 22.8396 5.84708 22.932 7.6965C23.0398 9.60259 23.0398 15.3106 22.932 17.2166ZM20.478 5.65132C20.0775 4.64161 19.3023 3.86372 18.2909 3.45674C16.7764 2.85401 13.1826 2.9931 11.509 2.9931C9.83532 2.9931 6.23644 2.85916 4.72706 3.45674C3.72081 3.85857 2.94559 4.63646 2.54001 5.65132C1.93934 7.17104 2.07796 10.7772 2.07796 12.4566C2.07796 14.136 1.94448 17.7473 2.54001 19.2618C2.94046 20.2715 3.71568 21.0494 4.72706 21.4564C6.24157 22.0591 9.83532 21.92 11.509 21.92C13.1826 21.92 16.7815 22.054 18.2909 21.4564C19.2972 21.0546 20.0724 20.2767 20.478 19.2618C21.0786 17.7421 20.94 14.136 20.94 12.4566C20.94 10.7772 21.0786 7.16589 20.478 5.65132Z" fill="#FDFFF5"/>
</svg>
