<svg width="22" height="22" viewBox="0 0 22 22" fill="none" xmlns="http://www.w3.org/2000/svg">
<path d="M7.24626 1.082C6.9079 0.264651 6.01585 -0.170388 5.16335 0.0625116L1.29633 1.11715C0.531715 1.32808 0 2.02239 0 2.81337C0 13.685 8.81504 22.5 19.6866 22.5C20.4776 22.5 21.1719 21.9683 21.3828 21.2037L22.4375 17.3367C22.6704 16.4842 22.2353 15.5921 21.418 15.2537L17.1994 13.496C16.4832 13.1972 15.6526 13.4037 15.1649 14.0057L13.3895 16.1722C10.2959 14.7088 7.79116 12.2041 6.32785 9.11045L8.49425 7.33954C9.09628 6.84737 9.30281 6.02123 9.004 5.30496L7.24626 1.08639V1.082Z" fill="white"/>
</svg>
