<svg width="24" height="15" viewBox="0 0 24 15" fill="none" xmlns="http://www.w3.org/2000/svg">
<path fill-rule="evenodd" clip-rule="evenodd" d="M22.896 0.959406C23.0609 0.395049 22.896 0 22.1267 0H19.5624C18.903 0 18.6099 0.357426 18.445 0.752475C18.445 0.752475 17.1446 4.02574 15.2946 6.13267C14.6901 6.75347 14.4337 6.94158 14.104 6.94158C13.9391 6.94158 13.701 6.75347 13.701 6.18911V0.959406C13.701 0.282178 13.5178 0 12.9683 0H8.93861C8.53564 0 8.27921 0.319801 8.27921 0.60198C8.27921 1.24158 9.19505 1.39208 9.30495 3.1604V7.03564C9.30495 7.88218 9.15842 8.03267 8.82871 8.03267C7.96782 8.03267 5.84307 4.75941 4.59752 0.99703C4.34109 0.300991 4.10297 0 3.44356 0H0.879208C0.146535 0 0 0.357426 0 0.752475C0 1.44851 0.860891 4.9099 4.04802 9.48119C6.17277 12.604 9.15842 14.297 11.8693 14.297C13.4995 14.297 13.701 13.9208 13.701 13.2812V10.9109C13.701 10.1584 13.8475 10.0079 14.3787 10.0079C14.7634 10.0079 15.4045 10.196 16.9248 11.701C18.6649 13.4881 18.9579 14.297 19.9287 14.297H22.4931C23.2257 14.297 23.5921 13.9208 23.3723 13.1871C23.1342 12.4535 22.3099 11.3812 21.2109 10.102C20.6064 9.36832 19.7089 8.59703 19.4525 8.20198C19.0678 7.69406 19.1777 7.46832 19.4525 7.03564C19.4525 7.01683 22.5847 2.50198 22.896 0.959406Z" fill="#FDFFF5"/>
</svg>
