<svg width="23" height="24" viewBox="0 0 23 24" fill="none" xmlns="http://www.w3.org/2000/svg">
<path d="M19.5551 3.98501C17.404 1.82876 14.5393 0.642822 11.4949 0.642822C5.21094 0.642822 0.0975446 5.75622 0.0975446 12.0401C0.0975446 14.0475 0.621205 16.0087 1.61719 17.7388L0 23.6428L6.04263 22.0564C7.70603 22.9651 9.57991 23.4426 11.4897 23.4426H11.4949C17.7737 23.4426 23 18.3292 23 12.0453C23 9.00086 21.7063 6.14126 19.5551 3.98501ZM11.4949 21.5225C9.7904 21.5225 8.12187 21.0656 6.66897 20.2031L6.325 19.9977L2.74152 20.9372L3.69643 17.441L3.47054 17.0817C2.52076 15.5723 2.02277 13.8319 2.02277 12.0401C2.02277 6.81894 6.27366 2.56805 11.5 2.56805C14.031 2.56805 16.408 3.55376 18.1946 5.3455C19.9813 7.13724 21.0799 9.51425 21.0748 12.0453C21.0748 17.2716 16.7161 21.5225 11.4949 21.5225ZM16.6904 14.4274C16.408 14.2837 15.0065 13.5957 14.7446 13.5033C14.4828 13.4058 14.2929 13.3596 14.1029 13.6471C13.9129 13.9346 13.3688 14.5712 13.1993 14.7663C13.035 14.9562 12.8656 14.9819 12.5833 14.8381C10.9096 14.0013 9.81094 13.3442 8.70714 11.4497C8.41451 10.9466 8.99978 10.9826 9.54397 9.89416C9.63638 9.70421 9.59018 9.53992 9.5183 9.39617C9.44643 9.25242 8.87656 7.85086 8.6404 7.28099C8.40938 6.72653 8.17321 6.80354 7.99866 6.79327C7.83438 6.783 7.64442 6.783 7.45446 6.783C7.26451 6.783 6.95647 6.85488 6.69464 7.13724C6.43281 7.42474 5.69866 8.11269 5.69866 9.51425C5.69866 10.9158 6.72031 12.2712 6.85893 12.4611C7.00268 12.6511 8.86629 15.5261 11.7259 16.7634C13.533 17.5437 14.2415 17.6105 15.1451 17.477C15.6944 17.3948 16.829 16.789 17.0652 16.1216C17.3013 15.4542 17.3013 14.8843 17.2295 14.7663C17.1627 14.6379 16.9728 14.566 16.6904 14.4274Z" fill="#FDFFF5"/>
</svg>
